<mxfile host="app.diagrams.net" modified="2024-04-27T02:15:13.908Z" agent="Mozilla/5.0 (Windows NT 10.0; Win64; x64) AppleWebKit/537.36 (KHTML, like Gecko) Chrome/124.0.0.0 Safari/537.36" etag="btGoR1xeIzRN74Dqs0ab" version="24.3.1" type="google">
  <diagram name="Página-1" id="RXc2RLLWSJeJABgzcuFo">
    <mxGraphModel grid="1" page="1" gridSize="10" guides="1" tooltips="1" connect="1" arrows="1" fold="1" pageScale="1" pageWidth="827" pageHeight="1169" math="0" shadow="0">
      <root>
        <mxCell id="0" />
        <mxCell id="1" parent="0" />
        <mxCell id="RIBPLgs2tIToHIS9_J1g-12" value="Servidor Banco de Dados" style="swimlane;whiteSpace=wrap;html=1;" vertex="1" parent="1">
          <mxGeometry x="1150" y="60" width="160" height="500" as="geometry" />
        </mxCell>
        <mxCell id="RIBPLgs2tIToHIS9_J1g-32" value="Render" style="image;points=[];aspect=fixed;html=1;align=center;shadow=0;dashed=0;image=img/lib/allied_telesis/storage/Datacenter_Server_Half_Rack_ToR.svg;" vertex="1" parent="RIBPLgs2tIToHIS9_J1g-12">
          <mxGeometry x="56" y="40" width="38.2" height="49.63" as="geometry" />
        </mxCell>
        <mxCell id="RIBPLgs2tIToHIS9_J1g-23" value="Usuário" style="sketch=0;outlineConnect=0;fontColor=#232F3E;gradientColor=none;fillColor=#232F3D;strokeColor=none;dashed=0;verticalLabelPosition=bottom;verticalAlign=top;align=center;html=1;fontSize=12;fontStyle=0;aspect=fixed;pointerEvents=1;shape=mxgraph.aws4.user;" vertex="1" parent="1">
          <mxGeometry x="-142.81" y="130" width="65.62" height="65.62" as="geometry" />
        </mxCell>
        <mxCell id="RIBPLgs2tIToHIS9_J1g-27" value="Servidor" style="swimlane;whiteSpace=wrap;html=1;" vertex="1" parent="1">
          <mxGeometry x="40" y="60" width="1330" height="598" as="geometry" />
        </mxCell>
        <mxCell id="RIBPLgs2tIToHIS9_J1g-25" value="Render" style="image;points=[];aspect=fixed;html=1;align=center;shadow=0;dashed=0;image=img/lib/allied_telesis/storage/Datacenter_Server_Half_Rack_ToR.svg;" vertex="1" parent="RIBPLgs2tIToHIS9_J1g-27">
          <mxGeometry x="654.8199999999999" y="30" width="26.18" height="34.01" as="geometry" />
        </mxCell>
        <mxCell id="RIBPLgs2tIToHIS9_J1g-24" value="Views" style="swimlane;whiteSpace=wrap;html=1;startSize=23;opacity=30;" vertex="1" parent="RIBPLgs2tIToHIS9_J1g-27">
          <mxGeometry x="40" y="110" width="170" height="488" as="geometry" />
        </mxCell>
        <mxCell id="RIBPLgs2tIToHIS9_J1g-41" value="&lt;b&gt;Tela inicial&lt;/b&gt;" style="swimlane;fontStyle=0;childLayout=stackLayout;horizontal=1;startSize=30;horizontalStack=0;resizeParent=1;resizeParentMax=0;resizeLast=0;collapsible=1;marginBottom=0;whiteSpace=wrap;html=1;" vertex="1" parent="RIBPLgs2tIToHIS9_J1g-24">
          <mxGeometry x="15" y="38" width="140" height="120" as="geometry" />
        </mxCell>
        <mxCell id="RIBPLgs2tIToHIS9_J1g-42" value="Header" style="text;strokeColor=none;fillColor=none;align=left;verticalAlign=middle;spacingLeft=4;spacingRight=4;overflow=hidden;points=[[0,0.5],[1,0.5]];portConstraint=eastwest;rotatable=0;whiteSpace=wrap;html=1;" vertex="1" parent="RIBPLgs2tIToHIS9_J1g-41">
          <mxGeometry y="30" width="140" height="30" as="geometry" />
        </mxCell>
        <mxCell id="RIBPLgs2tIToHIS9_J1g-43" value="Footer (infos de contato etc)" style="text;strokeColor=none;fillColor=none;align=left;verticalAlign=middle;spacingLeft=4;spacingRight=4;overflow=hidden;points=[[0,0.5],[1,0.5]];portConstraint=eastwest;rotatable=0;whiteSpace=wrap;html=1;" vertex="1" parent="RIBPLgs2tIToHIS9_J1g-41">
          <mxGeometry y="60" width="140" height="30" as="geometry" />
        </mxCell>
        <mxCell id="RIBPLgs2tIToHIS9_J1g-44" value="Botão de avanço" style="text;strokeColor=none;fillColor=none;align=left;verticalAlign=middle;spacingLeft=4;spacingRight=4;overflow=hidden;points=[[0,0.5],[1,0.5]];portConstraint=eastwest;rotatable=0;whiteSpace=wrap;html=1;" vertex="1" parent="RIBPLgs2tIToHIS9_J1g-41">
          <mxGeometry y="90" width="140" height="30" as="geometry" />
        </mxCell>
        <mxCell id="F_xdA7LTF2UuiQwfEId_-6" value="&lt;b&gt;Página de login&lt;/b&gt;" style="swimlane;fontStyle=0;childLayout=stackLayout;horizontal=1;startSize=30;horizontalStack=0;resizeParent=1;resizeParentMax=0;resizeLast=0;collapsible=1;marginBottom=0;whiteSpace=wrap;html=1;" vertex="1" parent="RIBPLgs2tIToHIS9_J1g-24">
          <mxGeometry x="15" y="158" width="140" height="210" as="geometry" />
        </mxCell>
        <mxCell id="F_xdA7LTF2UuiQwfEId_-7" value="Inserir email" style="text;strokeColor=none;fillColor=none;align=left;verticalAlign=middle;spacingLeft=4;spacingRight=4;overflow=hidden;points=[[0,0.5],[1,0.5]];portConstraint=eastwest;rotatable=0;whiteSpace=wrap;html=1;" vertex="1" parent="F_xdA7LTF2UuiQwfEId_-6">
          <mxGeometry y="30" width="140" height="30" as="geometry" />
        </mxCell>
        <mxCell id="F_xdA7LTF2UuiQwfEId_-8" value="Inserir senha" style="text;strokeColor=none;fillColor=none;align=left;verticalAlign=middle;spacingLeft=4;spacingRight=4;overflow=hidden;points=[[0,0.5],[1,0.5]];portConstraint=eastwest;rotatable=0;whiteSpace=wrap;html=1;" vertex="1" parent="F_xdA7LTF2UuiQwfEId_-6">
          <mxGeometry y="60" width="140" height="30" as="geometry" />
        </mxCell>
        <mxCell id="F_xdA7LTF2UuiQwfEId_-9" value="Esqueci minha senha" style="text;strokeColor=none;fillColor=none;align=left;verticalAlign=middle;spacingLeft=4;spacingRight=4;overflow=hidden;points=[[0,0.5],[1,0.5]];portConstraint=eastwest;rotatable=0;whiteSpace=wrap;html=1;" vertex="1" parent="F_xdA7LTF2UuiQwfEId_-6">
          <mxGeometry y="90" width="140" height="30" as="geometry" />
        </mxCell>
        <mxCell id="F_xdA7LTF2UuiQwfEId_-12" value="&lt;b&gt;Página do ADM&lt;/b&gt;" style="swimlane;fontStyle=0;childLayout=stackLayout;horizontal=1;startSize=30;horizontalStack=0;resizeParent=1;resizeParentMax=0;resizeLast=0;collapsible=1;marginBottom=0;whiteSpace=wrap;html=1;" vertex="1" parent="F_xdA7LTF2UuiQwfEId_-6">
          <mxGeometry y="120" width="140" height="90" as="geometry" />
        </mxCell>
        <mxCell id="F_xdA7LTF2UuiQwfEId_-13" value="Dados" style="text;strokeColor=none;fillColor=none;align=left;verticalAlign=middle;spacingLeft=4;spacingRight=4;overflow=hidden;points=[[0,0.5],[1,0.5]];portConstraint=eastwest;rotatable=0;whiteSpace=wrap;html=1;" vertex="1" parent="F_xdA7LTF2UuiQwfEId_-12">
          <mxGeometry y="30" width="140" height="30" as="geometry" />
        </mxCell>
        <mxCell id="F_xdA7LTF2UuiQwfEId_-14" value="Quantidade e data das respostas" style="text;strokeColor=none;fillColor=none;align=left;verticalAlign=middle;spacingLeft=4;spacingRight=4;overflow=hidden;points=[[0,0.5],[1,0.5]];portConstraint=eastwest;rotatable=0;whiteSpace=wrap;html=1;" vertex="1" parent="F_xdA7LTF2UuiQwfEId_-12">
          <mxGeometry y="60" width="140" height="30" as="geometry" />
        </mxCell>
        <mxCell id="F_xdA7LTF2UuiQwfEId_-16" value="&lt;b&gt;Formulários&lt;/b&gt;" style="swimlane;fontStyle=0;childLayout=stackLayout;horizontal=1;startSize=30;horizontalStack=0;resizeParent=1;resizeParentMax=0;resizeLast=0;collapsible=1;marginBottom=0;whiteSpace=wrap;html=1;" vertex="1" parent="RIBPLgs2tIToHIS9_J1g-24">
          <mxGeometry x="15" y="368" width="140" height="90" as="geometry" />
        </mxCell>
        <mxCell id="F_xdA7LTF2UuiQwfEId_-17" value="Entrada de respostas" style="text;strokeColor=none;fillColor=none;align=left;verticalAlign=middle;spacingLeft=4;spacingRight=4;overflow=hidden;points=[[0,0.5],[1,0.5]];portConstraint=eastwest;rotatable=0;whiteSpace=wrap;html=1;" vertex="1" parent="F_xdA7LTF2UuiQwfEId_-16">
          <mxGeometry y="30" width="140" height="30" as="geometry" />
        </mxCell>
        <mxCell id="F_xdA7LTF2UuiQwfEId_-18" value="Perguntas" style="text;strokeColor=none;fillColor=none;align=left;verticalAlign=middle;spacingLeft=4;spacingRight=4;overflow=hidden;points=[[0,0.5],[1,0.5]];portConstraint=eastwest;rotatable=0;whiteSpace=wrap;html=1;" vertex="1" parent="F_xdA7LTF2UuiQwfEId_-16">
          <mxGeometry y="60" width="140" height="30" as="geometry" />
        </mxCell>
        <mxCell id="BTqJfUpLhKWyFMrB6gHA-19" value="Procurar" style="text;strokeColor=none;fillColor=none;align=left;verticalAlign=middle;spacingLeft=4;spacingRight=4;overflow=hidden;points=[[0,0.5],[1,0.5]];portConstraint=eastwest;rotatable=0;whiteSpace=wrap;html=1;" vertex="1" parent="RIBPLgs2tIToHIS9_J1g-27">
          <mxGeometry x="535" y="170" width="140" height="30" as="geometry" />
        </mxCell>
        <mxCell id="BTqJfUpLhKWyFMrB6gHA-17" value="Autenticar" style="text;strokeColor=default;fillColor=none;align=left;verticalAlign=middle;spacingLeft=4;spacingRight=4;overflow=hidden;points=[[0,0.5],[1,0.5]];portConstraint=eastwest;rotatable=0;whiteSpace=wrap;html=1;" vertex="1" parent="RIBPLgs2tIToHIS9_J1g-27">
          <mxGeometry x="533" y="200" width="140" height="30" as="geometry" />
        </mxCell>
        <mxCell id="8E9tR4ewlkYtLSPhBihO-6" style="edgeStyle=orthogonalEdgeStyle;rounded=0;orthogonalLoop=1;jettySize=auto;html=1;entryX=0;entryY=0.5;entryDx=0;entryDy=0;" edge="1" parent="RIBPLgs2tIToHIS9_J1g-27" source="F_xdA7LTF2UuiQwfEId_-7" target="BTqJfUpLhKWyFMrB6gHA-17">
          <mxGeometry relative="1" as="geometry">
            <Array as="points">
              <mxPoint x="310" y="313" />
              <mxPoint x="310" y="215" />
            </Array>
          </mxGeometry>
        </mxCell>
        <mxCell id="8E9tR4ewlkYtLSPhBihO-8" style="edgeStyle=orthogonalEdgeStyle;rounded=0;orthogonalLoop=1;jettySize=auto;html=1;" edge="1" parent="RIBPLgs2tIToHIS9_J1g-27" source="F_xdA7LTF2UuiQwfEId_-8" target="BTqJfUpLhKWyFMrB6gHA-17">
          <mxGeometry relative="1" as="geometry">
            <Array as="points">
              <mxPoint x="310" y="343" />
              <mxPoint x="310" y="215" />
            </Array>
          </mxGeometry>
        </mxCell>
        <mxCell id="8E9tR4ewlkYtLSPhBihO-9" value="Atualizar" style="text;strokeColor=default;fillColor=none;align=left;verticalAlign=middle;spacingLeft=4;spacingRight=4;overflow=hidden;points=[[0,0.5],[1,0.5]];portConstraint=eastwest;rotatable=0;whiteSpace=wrap;html=1;" vertex="1" parent="RIBPLgs2tIToHIS9_J1g-27">
          <mxGeometry x="533" y="230" width="140" height="30" as="geometry" />
        </mxCell>
        <mxCell id="8E9tR4ewlkYtLSPhBihO-10" style="edgeStyle=orthogonalEdgeStyle;rounded=0;orthogonalLoop=1;jettySize=auto;html=1;entryX=0;entryY=0.5;entryDx=0;entryDy=0;" edge="1" parent="RIBPLgs2tIToHIS9_J1g-27" source="F_xdA7LTF2UuiQwfEId_-9" target="8E9tR4ewlkYtLSPhBihO-9">
          <mxGeometry relative="1" as="geometry">
            <Array as="points">
              <mxPoint x="390" y="373" />
              <mxPoint x="390" y="245" />
            </Array>
          </mxGeometry>
        </mxCell>
        <mxCell id="8E9tR4ewlkYtLSPhBihO-15" style="edgeStyle=orthogonalEdgeStyle;rounded=0;orthogonalLoop=1;jettySize=auto;html=1;entryX=0;entryY=0.5;entryDx=0;entryDy=0;" edge="1" parent="RIBPLgs2tIToHIS9_J1g-27" source="RIBPLgs2tIToHIS9_J1g-43" target="BTqJfUpLhKWyFMrB6gHA-19">
          <mxGeometry relative="1" as="geometry">
            <Array as="points">
              <mxPoint x="290" y="223" />
              <mxPoint x="290" y="185" />
            </Array>
          </mxGeometry>
        </mxCell>
        <mxCell id="8E9tR4ewlkYtLSPhBihO-16" value="Dashboard ADM" style="swimlane;fontStyle=0;childLayout=stackLayout;horizontal=1;startSize=30;horizontalStack=0;resizeParent=1;resizeParentMax=0;resizeLast=0;collapsible=1;marginBottom=0;whiteSpace=wrap;html=1;" vertex="1" parent="RIBPLgs2tIToHIS9_J1g-27">
          <mxGeometry x="535" y="300" width="140" height="90" as="geometry" />
        </mxCell>
        <mxCell id="8E9tR4ewlkYtLSPhBihO-17" value="Procurar" style="text;strokeColor=none;fillColor=none;align=left;verticalAlign=middle;spacingLeft=4;spacingRight=4;overflow=hidden;points=[[0,0.5],[1,0.5]];portConstraint=eastwest;rotatable=0;whiteSpace=wrap;html=1;" vertex="1" parent="8E9tR4ewlkYtLSPhBihO-16">
          <mxGeometry y="30" width="140" height="30" as="geometry" />
        </mxCell>
        <mxCell id="8E9tR4ewlkYtLSPhBihO-18" value="Listar" style="text;strokeColor=none;fillColor=none;align=left;verticalAlign=middle;spacingLeft=4;spacingRight=4;overflow=hidden;points=[[0,0.5],[1,0.5]];portConstraint=eastwest;rotatable=0;whiteSpace=wrap;html=1;" vertex="1" parent="8E9tR4ewlkYtLSPhBihO-16">
          <mxGeometry y="60" width="140" height="30" as="geometry" />
        </mxCell>
        <mxCell id="BTqJfUpLhKWyFMrB6gHA-31" value="Forms" style="swimlane;fontStyle=0;childLayout=stackLayout;horizontal=1;startSize=30;horizontalStack=0;resizeParent=1;resizeParentMax=0;resizeLast=0;collapsible=1;marginBottom=0;whiteSpace=wrap;html=1;" vertex="1" parent="RIBPLgs2tIToHIS9_J1g-27">
          <mxGeometry x="535" y="410" width="140" height="120" as="geometry" />
        </mxCell>
        <mxCell id="BTqJfUpLhKWyFMrB6gHA-32" value="Listar" style="text;strokeColor=none;fillColor=none;align=left;verticalAlign=middle;spacingLeft=4;spacingRight=4;overflow=hidden;points=[[0,0.5],[1,0.5]];portConstraint=eastwest;rotatable=0;whiteSpace=wrap;html=1;" vertex="1" parent="BTqJfUpLhKWyFMrB6gHA-31">
          <mxGeometry y="30" width="140" height="30" as="geometry" />
        </mxCell>
        <mxCell id="BTqJfUpLhKWyFMrB6gHA-33" value="Gravar" style="text;strokeColor=none;fillColor=none;align=left;verticalAlign=middle;spacingLeft=4;spacingRight=4;overflow=hidden;points=[[0,0.5],[1,0.5]];portConstraint=eastwest;rotatable=0;whiteSpace=wrap;html=1;" vertex="1" parent="BTqJfUpLhKWyFMrB6gHA-31">
          <mxGeometry y="60" width="140" height="30" as="geometry" />
        </mxCell>
        <mxCell id="BTqJfUpLhKWyFMrB6gHA-34" value="Procurar" style="text;strokeColor=none;fillColor=none;align=left;verticalAlign=middle;spacingLeft=4;spacingRight=4;overflow=hidden;points=[[0,0.5],[1,0.5]];portConstraint=eastwest;rotatable=0;whiteSpace=wrap;html=1;" vertex="1" parent="BTqJfUpLhKWyFMrB6gHA-31">
          <mxGeometry y="90" width="140" height="30" as="geometry" />
        </mxCell>
        <mxCell id="8E9tR4ewlkYtLSPhBihO-23" style="edgeStyle=orthogonalEdgeStyle;rounded=0;orthogonalLoop=1;jettySize=auto;html=1;" edge="1" parent="RIBPLgs2tIToHIS9_J1g-27" source="F_xdA7LTF2UuiQwfEId_-13" target="8E9tR4ewlkYtLSPhBihO-17">
          <mxGeometry relative="1" as="geometry">
            <Array as="points">
              <mxPoint x="410" y="433" />
              <mxPoint x="410" y="345" />
            </Array>
          </mxGeometry>
        </mxCell>
        <mxCell id="8E9tR4ewlkYtLSPhBihO-24" style="edgeStyle=orthogonalEdgeStyle;rounded=0;orthogonalLoop=1;jettySize=auto;html=1;exitX=1;exitY=0.5;exitDx=0;exitDy=0;entryX=0;entryY=0.5;entryDx=0;entryDy=0;" edge="1" parent="RIBPLgs2tIToHIS9_J1g-27" source="F_xdA7LTF2UuiQwfEId_-14" target="8E9tR4ewlkYtLSPhBihO-18">
          <mxGeometry relative="1" as="geometry">
            <Array as="points">
              <mxPoint x="460" y="463" />
              <mxPoint x="460" y="375" />
            </Array>
          </mxGeometry>
        </mxCell>
        <mxCell id="8E9tR4ewlkYtLSPhBihO-25" style="edgeStyle=orthogonalEdgeStyle;rounded=0;orthogonalLoop=1;jettySize=auto;html=1;exitX=1;exitY=0.75;exitDx=0;exitDy=0;entryX=0;entryY=0.5;entryDx=0;entryDy=0;" edge="1" parent="RIBPLgs2tIToHIS9_J1g-27" source="F_xdA7LTF2UuiQwfEId_-16" target="BTqJfUpLhKWyFMrB6gHA-33">
          <mxGeometry relative="1" as="geometry">
            <Array as="points">
              <mxPoint x="195" y="540" />
              <mxPoint x="480" y="540" />
              <mxPoint x="480" y="485" />
            </Array>
          </mxGeometry>
        </mxCell>
        <mxCell id="BTqJfUpLhKWyFMrB6gHA-5" value="Models" style="swimlane;whiteSpace=wrap;html=1;startSize=23;opacity=30;" vertex="1" parent="RIBPLgs2tIToHIS9_J1g-27">
          <mxGeometry x="820" y="110" width="210" height="450" as="geometry" />
        </mxCell>
        <mxCell id="BTqJfUpLhKWyFMrB6gHA-9" value="Users" style="swimlane;fontStyle=0;childLayout=stackLayout;horizontal=1;startSize=30;horizontalStack=0;resizeParent=1;resizeParentMax=0;resizeLast=0;collapsible=1;marginBottom=0;whiteSpace=wrap;html=1;" vertex="1" parent="BTqJfUpLhKWyFMrB6gHA-5">
          <mxGeometry x="40" y="25.62" width="140" height="130" as="geometry" />
        </mxCell>
        <mxCell id="BTqJfUpLhKWyFMrB6gHA-10" value="Id" style="text;strokeColor=none;fillColor=none;align=left;verticalAlign=middle;spacingLeft=4;spacingRight=4;overflow=hidden;points=[[0,0.5],[1,0.5]];portConstraint=eastwest;rotatable=0;whiteSpace=wrap;html=1;" vertex="1" parent="BTqJfUpLhKWyFMrB6gHA-9">
          <mxGeometry y="30" width="140" height="20" as="geometry" />
        </mxCell>
        <mxCell id="BTqJfUpLhKWyFMrB6gHA-11" value="Nome" style="text;strokeColor=none;fillColor=none;align=left;verticalAlign=middle;spacingLeft=4;spacingRight=4;overflow=hidden;points=[[0,0.5],[1,0.5]];portConstraint=eastwest;rotatable=0;whiteSpace=wrap;html=1;" vertex="1" parent="BTqJfUpLhKWyFMrB6gHA-9">
          <mxGeometry y="50" width="140" height="20" as="geometry" />
        </mxCell>
        <mxCell id="BTqJfUpLhKWyFMrB6gHA-12" value="Role" style="text;strokeColor=none;fillColor=none;align=left;verticalAlign=middle;spacingLeft=4;spacingRight=4;overflow=hidden;points=[[0,0.5],[1,0.5]];portConstraint=eastwest;rotatable=0;whiteSpace=wrap;html=1;" vertex="1" parent="BTqJfUpLhKWyFMrB6gHA-9">
          <mxGeometry y="70" width="140" height="20" as="geometry" />
        </mxCell>
        <mxCell id="8E9tR4ewlkYtLSPhBihO-31" value="Email" style="text;strokeColor=none;fillColor=none;align=left;verticalAlign=middle;spacingLeft=4;spacingRight=4;overflow=hidden;points=[[0,0.5],[1,0.5]];portConstraint=eastwest;rotatable=0;whiteSpace=wrap;html=1;" vertex="1" parent="BTqJfUpLhKWyFMrB6gHA-9">
          <mxGeometry y="90" width="140" height="20" as="geometry" />
        </mxCell>
        <mxCell id="8E9tR4ewlkYtLSPhBihO-32" value="Senha" style="text;strokeColor=none;fillColor=none;align=left;verticalAlign=middle;spacingLeft=4;spacingRight=4;overflow=hidden;points=[[0,0.5],[1,0.5]];portConstraint=eastwest;rotatable=0;whiteSpace=wrap;html=1;" vertex="1" parent="BTqJfUpLhKWyFMrB6gHA-9">
          <mxGeometry y="110" width="140" height="20" as="geometry" />
        </mxCell>
        <mxCell id="8E9tR4ewlkYtLSPhBihO-27" value="Forms" style="swimlane;fontStyle=0;childLayout=stackLayout;horizontal=1;startSize=30;horizontalStack=0;resizeParent=1;resizeParentMax=0;resizeLast=0;collapsible=1;marginBottom=0;whiteSpace=wrap;html=1;" vertex="1" parent="BTqJfUpLhKWyFMrB6gHA-5">
          <mxGeometry x="40" y="320" width="140" height="120" as="geometry" />
        </mxCell>
        <mxCell id="8E9tR4ewlkYtLSPhBihO-28" value="id" style="text;strokeColor=none;fillColor=none;align=left;verticalAlign=middle;spacingLeft=4;spacingRight=4;overflow=hidden;points=[[0,0.5],[1,0.5]];portConstraint=eastwest;rotatable=0;whiteSpace=wrap;html=1;" vertex="1" parent="8E9tR4ewlkYtLSPhBihO-27">
          <mxGeometry y="30" width="140" height="30" as="geometry" />
        </mxCell>
        <mxCell id="8E9tR4ewlkYtLSPhBihO-29" value="Resposta" style="text;strokeColor=none;fillColor=none;align=left;verticalAlign=middle;spacingLeft=4;spacingRight=4;overflow=hidden;points=[[0,0.5],[1,0.5]];portConstraint=eastwest;rotatable=0;whiteSpace=wrap;html=1;" vertex="1" parent="8E9tR4ewlkYtLSPhBihO-27">
          <mxGeometry y="60" width="140" height="30" as="geometry" />
        </mxCell>
        <mxCell id="8E9tR4ewlkYtLSPhBihO-30" value="Dados das respostas (data etc)" style="text;strokeColor=none;fillColor=none;align=left;verticalAlign=middle;spacingLeft=4;spacingRight=4;overflow=hidden;points=[[0,0.5],[1,0.5]];portConstraint=eastwest;rotatable=0;whiteSpace=wrap;html=1;" vertex="1" parent="8E9tR4ewlkYtLSPhBihO-27">
          <mxGeometry y="90" width="140" height="30" as="geometry" />
        </mxCell>
        <mxCell id="BTqJfUpLhKWyFMrB6gHA-2" value="Controllers" style="swimlane;whiteSpace=wrap;html=1;opacity=30;" vertex="1" parent="RIBPLgs2tIToHIS9_J1g-27">
          <mxGeometry x="525" y="90" width="156" height="470" as="geometry" />
        </mxCell>
        <mxCell id="BTqJfUpLhKWyFMrB6gHA-15" value="Users" style="swimlane;fontStyle=0;childLayout=stackLayout;horizontal=1;startSize=30;horizontalStack=0;resizeParent=1;resizeParentMax=0;resizeLast=0;collapsible=1;marginBottom=0;whiteSpace=wrap;html=1;" vertex="1" parent="BTqJfUpLhKWyFMrB6gHA-2">
          <mxGeometry x="8" y="45.620000000000005" width="140" height="60" as="geometry" />
        </mxCell>
        <mxCell id="8E9tR4ewlkYtLSPhBihO-34" style="edgeStyle=orthogonalEdgeStyle;rounded=0;orthogonalLoop=1;jettySize=auto;html=1;entryX=0.5;entryY=1;entryDx=0;entryDy=0;startArrow=classic;startFill=1;" edge="1" parent="RIBPLgs2tIToHIS9_J1g-27" source="8E9tR4ewlkYtLSPhBihO-17" target="BTqJfUpLhKWyFMrB6gHA-9">
          <mxGeometry relative="1" as="geometry">
            <mxPoint x="860" y="365" as="targetPoint" />
          </mxGeometry>
        </mxCell>
        <mxCell id="8E9tR4ewlkYtLSPhBihO-35" style="edgeStyle=orthogonalEdgeStyle;rounded=0;orthogonalLoop=1;jettySize=auto;html=1;" edge="1" parent="RIBPLgs2tIToHIS9_J1g-27" source="8E9tR4ewlkYtLSPhBihO-17" target="8E9tR4ewlkYtLSPhBihO-27">
          <mxGeometry relative="1" as="geometry" />
        </mxCell>
        <mxCell id="8E9tR4ewlkYtLSPhBihO-36" style="edgeStyle=orthogonalEdgeStyle;rounded=0;orthogonalLoop=1;jettySize=auto;html=1;exitX=1;exitY=0.25;exitDx=0;exitDy=0;entryX=-0.024;entryY=0.092;entryDx=0;entryDy=0;entryPerimeter=0;startArrow=classic;startFill=1;" edge="1" parent="RIBPLgs2tIToHIS9_J1g-27" source="BTqJfUpLhKWyFMrB6gHA-2" target="BTqJfUpLhKWyFMrB6gHA-12">
          <mxGeometry relative="1" as="geometry" />
        </mxCell>
        <mxCell id="RIBPLgs2tIToHIS9_J1g-16" value="" style="image;aspect=fixed;html=1;points=[];align=center;fontSize=12;image=img/lib/azure2/databases/Azure_Database_PostgreSQL_Server.svg;" vertex="1" parent="RIBPLgs2tIToHIS9_J1g-27">
          <mxGeometry x="1160" y="166" width="48" height="64" as="geometry" />
        </mxCell>
        <mxCell id="RIBPLgs2tIToHIS9_J1g-17" style="edgeStyle=orthogonalEdgeStyle;rounded=0;orthogonalLoop=1;jettySize=auto;html=1;entryX=0.033;entryY=0.547;entryDx=0;entryDy=0;entryPerimeter=0;" edge="1" parent="RIBPLgs2tIToHIS9_J1g-27" source="BTqJfUpLhKWyFMrB6gHA-9" target="RIBPLgs2tIToHIS9_J1g-16">
          <mxGeometry relative="1" as="geometry" />
        </mxCell>
        <mxCell id="RIBPLgs2tIToHIS9_J1g-49" style="edgeStyle=orthogonalEdgeStyle;rounded=0;orthogonalLoop=1;jettySize=auto;html=1;entryX=0;entryY=0.5;entryDx=0;entryDy=0;dashed=1;" edge="1" parent="1" source="RIBPLgs2tIToHIS9_J1g-48" target="RIBPLgs2tIToHIS9_J1g-24">
          <mxGeometry relative="1" as="geometry" />
        </mxCell>
        <mxCell id="RIBPLgs2tIToHIS9_J1g-48" value="" style="shape=image;html=1;verticalAlign=top;verticalLabelPosition=bottom;labelBackgroundColor=#ffffff;imageAspect=0;aspect=fixed;image=https://cdn2.iconfinder.com/data/icons/social-media-and-payment/64/-36-128.png" vertex="1" parent="1">
          <mxGeometry x="-160" y="306" width="88" height="88" as="geometry" />
        </mxCell>
        <mxCell id="RIBPLgs2tIToHIS9_J1g-50" style="edgeStyle=orthogonalEdgeStyle;rounded=0;orthogonalLoop=1;jettySize=auto;html=1;entryX=1;entryY=0.5;entryDx=0;entryDy=0;dashed=1;" edge="1" parent="1" source="RIBPLgs2tIToHIS9_J1g-24" target="RIBPLgs2tIToHIS9_J1g-48">
          <mxGeometry relative="1" as="geometry" />
        </mxCell>
        <mxCell id="RIBPLgs2tIToHIS9_J1g-51" value="Cliente" style="swimlane;horizontal=0;whiteSpace=wrap;html=1;" vertex="1" parent="1">
          <mxGeometry x="-210" y="250" width="200" height="200" as="geometry" />
        </mxCell>
      </root>
    </mxGraphModel>
  </diagram>
</mxfile>
